<svg xmlns="http://www.w3.org/2000/svg" viewBox="0 0 82.9 82.9"><defs><style>.cls-1{fill:#c79a51;}.cls-2{fill:#996f2a;}.cls-3{fill:none;stroke:#fff;stroke-miterlimit:10;stroke-width:2.66px;}.cls-4{fill:#fff;}</style></defs><g id="Layer_2" data-name="Layer 2"><g id="Layer_1-2" data-name="Layer 1"><circle class="cls-1" cx="41.45" cy="41.45" r="40.12"/><path class="cls-2" d="M26,63.52l13.5,18c19.88,1.05,36.29-12.75,40.77-30l-8.48-19-4,1.35-5.39-4L65,36.58l-4,1.35L47.52,29.85H30L15.19,46,26,62.17Z"/><circle class="cls-3" cx="41.45" cy="41.45" r="40.12"/><path class="cls-4" d="M70.8,32a1,1,0,0,0-1,.48,3.06,3.06,0,0,1-1.18,1c-.25.12-.52.21-.8.32,0-.33-.08-.63-.15-.92a5.72,5.72,0,0,0-1.91-3,2.9,2.9,0,0,0-1.86-.72,2.37,2.37,0,0,0-2.51,2.06,3.35,3.35,0,0,0,.46,2.12,5.13,5.13,0,0,0,2.3,2.12l.27.13a.28.28,0,0,0,0,.06,6.53,6.53,0,0,1-2.67,1.05l-.1-.15a16.53,16.53,0,0,0-4-5,22.42,22.42,0,0,0-6.25-3.74,27.24,27.24,0,0,0-5-1.46,29.5,29.5,0,0,0-3.75-.44,34.53,34.53,0,0,0-4.07,0c-.87.06-1.73.15-2.59.24a.68.68,0,0,1-.46-.11,24.2,24.2,0,0,0-5.4-2.47,21.39,21.39,0,0,0-4.11-.9,15,15,0,0,0-3-.08l-.08,0a5.41,5.41,0,0,0,.24,1.25A14.45,14.45,0,0,0,25.74,29l.26.33,0,0-.26.17a15.2,15.2,0,0,0-4,3.66,13.6,13.6,0,0,0-2,3.7.64.64,0,0,1-.41.44,12.48,12.48,0,0,1-3.51.83,2.94,2.94,0,0,0-.73.13A1.9,1.9,0,0,0,14,39.4a1.92,1.92,0,0,1-.12.25v1.13a1.28,1.28,0,0,1,.11.58,16,16,0,0,0,1.13,4.41,7.43,7.43,0,0,0,1.23,2,4.6,4.6,0,0,0,2.93,1.55l1.66.2a18.4,18.4,0,0,0,5.91,5.8c-.05.29-.1.58-.16.86-.4,1.81-.84,3.61-1.38,5.39a1.48,1.48,0,0,0,.87,1.88,1.2,1.2,0,0,1,.23.11h6.5a.15.15,0,0,1,0-.06,1.35,1.35,0,0,0,1.18-1c.27-.79.53-1.58.78-2.38.15-.49.28-1,.43-1.52a29.27,29.27,0,0,0,12.15-.18c0,.09,0,.15,0,.21-.28,1-.55,2-.82,3a1.36,1.36,0,0,0,.46,1.52,3.3,3.3,0,0,0,.45.26l.17.1h6.56a.15.15,0,0,1,0-.06,1.31,1.31,0,0,0,1.14-.93c.32-.94.64-1.87.92-2.82a41.76,41.76,0,0,0,1.21-5.65,2.11,2.11,0,0,1,.13-.68,2.14,2.14,0,0,1,.48-.47,15.28,15.28,0,0,0,4.3-6.7,12.3,12.3,0,0,0,.55-4.13,12.13,12.13,0,0,0-.48-3c0-.08,0-.15,0-.23.42-.13.84-.24,1.24-.39a7.46,7.46,0,0,0,2.76-1.71,3.09,3.09,0,0,0,.37-.43.38.38,0,0,1,.34-.17,5.38,5.38,0,0,0,4.32-2.4A1.06,1.06,0,0,0,70.8,32Zm-42.94,5.8c-2.64,0-2.63-4.1,0-4.1S30.5,37.81,27.86,37.81Zm20,.74a1.45,1.45,0,0,1-2.66.24l-.05-.11a1.93,1.93,0,0,0-1.66-1.26,2.57,2.57,0,0,0-1.32,0,1.5,1.5,0,0,0-1.06,1.35,1.22,1.22,0,0,0,.51,1,3,3,0,0,0,1.32.62,9.27,9.27,0,0,1,1.85.59,4.67,4.67,0,0,1,2.41,2.44,4.18,4.18,0,0,1-1.46,5,4.23,4.23,0,0,1-.68.41,6.5,6.5,0,0,1-.75.33c0,.29,0,.59,0,.9a1.45,1.45,0,0,1-2.89,0c0-.3,0-.59,0-.88-.31-.11-.6-.19-.88-.31a4.65,4.65,0,0,1-2.59-2.49,1.51,1.51,0,0,1,0-1.28,1.37,1.37,0,0,1,1.28-.85,1.39,1.39,0,0,1,1.31.76.31.31,0,0,1,0,.1,2,2,0,0,0,1.78,1.29,2.44,2.44,0,0,0,1.17-.06A1.49,1.49,0,0,0,44.58,45a1.26,1.26,0,0,0-.53-1,3.05,3.05,0,0,0-1.25-.58A10.13,10.13,0,0,1,41.2,43,5.12,5.12,0,0,1,39,41.27a4.16,4.16,0,0,1,.75-5.68,4.78,4.78,0,0,1,1.66-.9v-.88a1.45,1.45,0,1,1,2.9,0v.81c.3.11.59.19.87.31a4.65,4.65,0,0,1,2.58,2.5A1.55,1.55,0,0,1,47.83,38.55Zm15.7-6.73a.85.85,0,0,1,0-.17c0-.22.11-.35.32-.31a1.17,1.17,0,0,1,.51.22,3.65,3.65,0,0,1,1.22,2,1.16,1.16,0,0,1,0,.21A3,3,0,0,1,63.53,31.82Z"/></g></g></svg>