<svg xmlns="http://www.w3.org/2000/svg" viewBox="0 0 82.89 82.89"><defs><style>.cls-1{fill:#e2702e;}.cls-2{fill:#a44e2a;}.cls-3{fill:#fff;}.cls-4{fill:none;stroke:#fff;stroke-miterlimit:10;stroke-width:2.66px;}</style></defs><g id="Layer_2" data-name="Layer 2"><g id="Layer_1-2" data-name="Layer 1"><circle class="cls-1" cx="41.45" cy="41.45" r="40.12"/><path class="cls-2" d="M22.57,58.17l16.9,23.39c19.87,1.06,36.29-12.74,40.77-30L63,33.31V46.38L51.81,58Z"/><path class="cls-3" d="M42.89,32H60.77c.32,0,.64,0,1,0A1.22,1.22,0,0,1,63,33.31c0,.82,0,1.65,0,2.48V46.38c0,1.16,0,1-1.06,1-1.57,0-1.42.24-1.43-1.34q0-3.37,0-6.75c0-.53,0-.84-.73-1A4.11,4.11,0,0,1,57,35.67c-.37-1-.89-1.18-1.87-1.18-7.56,0-15.13,0-22.7,0-1,0-1.93,0-2.89,0-.43,0-.59.13-.74.57a4.89,4.89,0,0,1-3.26,3.25c-.5.16-.51.41-.51.79v5.64c0,2,0,4,0,6.06,0,.48,0,.87.61,1a4.39,4.39,0,0,1,3,2.8,1.17,1.17,0,0,0,1.33.82c6.88,0,13.76,0,20.64,0h.82c.74,0,.74,0,.62.75,0,.18,0,.37,0,.55,0,.44.07,1.06-.18,1.26s-.86.11-1.32.11H25c-.27,0-.55,0-.82,0a1.55,1.55,0,0,1-1.64-1.75q0-11.34,0-22.7c0-1.34.34-1.66,1.74-1.66H42.89Z"/><path class="cls-3" d="M50.35,45.06A8.38,8.38,0,0,1,46,52.7a7,7,0,0,1-8.7-1.93A9.52,9.52,0,0,1,37,39.35a6.94,6.94,0,0,1,6-3.06c3.42.13,5.65,2.11,6.88,5.17a8.78,8.78,0,0,1,.55,2A11.2,11.2,0,0,1,50.35,45.06ZM43,49.9s.52.21.48-.39.27-.82.84-1A2.08,2.08,0,0,0,46,46.6a2.18,2.18,0,0,0-1.6-2.4c-.63-.25-1.29-.42-1.92-.68-.16-.07-.38-.4-.34-.5s.35-.49.54-.49a13.17,13.17,0,0,1,1.88.2c.44.06.84.12.85-.53a1.21,1.21,0,0,1,.13-.52c.16-.34.07-.5-.29-.56a5.78,5.78,0,0,0-1.06-.24c-.51,0-.75-.16-.72-.71,0-.13-.25-.36-.41-.39-.73-.14-.91,0-1.19.83a1.43,1.43,0,0,1-.5.51A7.43,7.43,0,0,0,40,42a1.85,1.85,0,0,0,.36,2.92,13.19,13.19,0,0,0,1.5.63c.42.17.85.31,1.25.52a.67.67,0,0,1,.34.49c0,.16-.23.35-.41.44A2.88,2.88,0,0,1,41,47c-1.15-.32-1.34-.15-1.35,1,0,.4.13.58.52.64a8.14,8.14,0,0,1,1.32.28c.17,0,.4.27.4.4C41.79,49.91,42.16,50,43,49.9Z"/><path class="cls-3" d="M54.56,30.42a3.21,3.21,0,0,1-.82,0,2.07,2.07,0,0,1-.59-.42s0-.09,0-.14c-.13-1.35-.9-1.86-2.22-1.95a3.64,3.64,0,0,1-2.76-1.6c-.47-.71-.95-.67-1.61-.45l-7.47,2.48c-1.89.62-3.78,1.25-5.68,1.86a3.52,3.52,0,0,1-1,.22c-2.25,0-4.5,0-6.74,0a1.21,1.21,0,0,1-.42-.16l.36-.15q9.62-3.17,19.22-6.33c2.11-.69,4.2-1.42,6.31-2.12,1.4-.47,2-.19,2.43,1.23.74,2.18,1.46,4.37,2.18,6.57.31.95.31.95-.7,1Z"/><path class="cls-3" d="M14.86,35A1.73,1.73,0,0,1,16,33.18q2.5-.82,5-1.62a2.21,2.21,0,0,1,.52,0,3.44,3.44,0,0,0-.21.53A17,17,0,0,0,21,33.92a6.92,6.92,0,0,0,0,1.64,3.29,3.29,0,0,1-1.5,3.18.8.8,0,0,0-.32,1.12c.57,1.57,1.06,3.17,1.57,4.77a3.88,3.88,0,0,1,.23,1c0,2.24,0,4.49,0,6.73a1.58,1.58,0,0,1-.15.43,2.83,2.83,0,0,1-.16-.36Q18,44.43,15.37,36.38C15.19,35.82,15,35.29,14.86,35Z"/><path class="cls-3" d="M60.41,54.84H54.92a4.78,4.78,0,0,1-1.06-.17,1,1,0,0,1-.76-1.14c0-.57.18-1,.76-1.15a4.32,4.32,0,0,1,1.06-.16H65.64a3.71,3.71,0,0,1,.94.1,1.28,1.28,0,0,1,1.09,1.36,1.52,1.52,0,0,1-1.35,1.16c-.78,0-1.56,0-2.34,0Z"/><path class="cls-3" d="M60.59,58.21H55.23a7.48,7.48,0,0,1-.82,0,1.11,1.11,0,0,1-1-1,1,1,0,0,1,.72-1.29,2.44,2.44,0,0,1,.92-.19H66.31a2.68,2.68,0,0,1,.8.13A1.31,1.31,0,0,1,68,57.25a1.19,1.19,0,0,1-1.17.94c-.87,0-1.74,0-2.62,0Z"/><path class="cls-3" d="M60.82,48.82c2,0,3.93,0,5.9,0,.9,0,1.31.43,1.32,1.21A1.16,1.16,0,0,1,66.9,51.3c-.27,0-.55,0-.82,0H55.66c-.23,0-.46,0-.69,0-.88,0-1.31-.45-1.33-1.22s.43-1.2,1.29-1.25c.22,0,.45,0,.68,0Z"/><path class="cls-3" d="M30.35,47.18a2.17,2.17,0,0,1-2.26-2.34,2.47,2.47,0,0,1,2.39-2.32A2.54,2.54,0,0,1,32.77,45,2.25,2.25,0,0,1,30.35,47.18Z"/><path class="cls-3" d="M55.18,47.19a2.2,2.2,0,0,1-2.33-2.29,2.34,2.34,0,1,1,4.68,0A2.23,2.23,0,0,1,55.18,47.19Z"/><circle class="cls-4" cx="41.45" cy="41.45" r="40.12"/></g></g></svg>